<?xml version="1.0" encoding="UTF-8"?>
<!-- Created with Inkscape (http://www.inkscape.org/) -->
<svg width="209.99mm" height="199.75mm" version="1.1" viewBox="0 0 209.99 199.75" xmlns="http://www.w3.org/2000/svg">
 <g>
  <path d="m111.23 91.216a0.13411 0.87169 0 0 1-0.0392 1.1001 0.13411 0.87169 0 0 1-0.17335-0.07468 0.13411 0.87169 0 0 1-0.0165-1.1241l0.10998 0.49882z" fill-rule="evenodd" stop-color="#000000" stroke-width=".26458" style="-inkscape-stroke:none;font-variation-settings:normal"/>
  <path transform="translate(-10.712 12.538)" d="m177.9 183.59-62.237-32.766-62.275 32.694 11.93-69.316-50.338-49.124 69.61-10.074 31.164-63.055 31.092 63.09 69.599 10.154-50.395 49.066z" fill="#0d0d0d" stroke="#fffafa" stroke-linecap="round" stroke-miterlimit="15" stroke-width="3.9688" style="paint-order:markers fill stroke"/>
  <path d="m136.93 150.97-30.781-16.269-30.852 16.134 5.9603-34.302-24.878-24.356 34.465-4.9313 15.476-31.187 15.34 31.254 34.443 5.0816-24.984 24.248z" fill="#fafff8" stroke="#fffafa" stroke-linecap="round" stroke-miterlimit="15" stroke-width="3.9688" style="paint-order:markers fill stroke"/>
 </g>
</svg>
