<?xml version="1.0" encoding="UTF-8"?>
<!-- Created with Inkscape (http://www.inkscape.org/) -->
<svg width="245.12mm" height="203.8mm" version="1.1" viewBox="0 0 245.12 203.8" xmlns="http://www.w3.org/2000/svg">
 <ellipse cx="122.56" cy="101.9" rx="120.57" ry="99.916" fill-rule="evenodd" stop-color="#000000" stroke="#fff" stroke-linecap="round" stroke-miterlimit="15" stroke-width="3.9688" style="font-variation-settings:normal;paint-order:markers fill stroke"/>
 <g transform="translate(8.3859 -66.324)">
  <ellipse cx="113.84" cy="131.82" rx="34.517" ry="30.534" fill="#fff" fill-rule="evenodd" stop-color="#000000" stroke-width=".28273" style="-inkscape-stroke:none;font-variation-settings:normal"/>
  <path transform="scale(-1)" d="m-70.115-222.47a43.34 61.057 0 0 1-43.296 61.057 43.34 61.057 0 0 1-43.384-60.933" fill="#fff" fill-rule="evenodd" stop-color="#000000" stroke-width=".25162" style="-inkscape-stroke:none;font-variation-settings:normal"/>
  <rect x="83.158" y="171.09" width="62.966" height="48.172" rx="2.4139" ry="2.4139" fill="#010000" stroke="#7b88fa" stroke-linecap="round" stroke-miterlimit="15" stroke-width="3.9688" style="paint-order:markers fill stroke"/>
  <rect x="111.31" y="172.46" width="7.0173" height="45.475" rx="0" ry="7.9655" fill="#050505" stroke="#6a8af6" stroke-linecap="round" stroke-miterlimit="15" stroke-width="1.3229" style="paint-order:markers fill stroke"/>
 </g>
 <path d="m126.11 91.195a0.13411 0.87169 0 0 1-0.0392 1.1001 0.13411 0.87169 0 0 1-0.17335-0.07468 0.13411 0.87169 0 0 1-0.0166-1.1241l0.10998 0.49882z" fill-rule="evenodd" stop-color="#000000" stroke-width=".26458" style="-inkscape-stroke:none;font-variation-settings:normal"/>
</svg>
